<?xml version="1.0" encoding="utf-8"?>
<!-- Generator: Adobe Illustrator 19.1.0, SVG Export Plug-In . SVG Version: 6.00 Build 0)  -->
<!DOCTYPE svg PUBLIC "-//W3C//DTD SVG 1.1//EN" "http://www.w3.org/Graphics/SVG/1.1/DTD/svg11.dtd">
<svg version="1.1" id="Layer_1" xmlns="http://www.w3.org/2000/svg" xmlns:xlink="http://www.w3.org/1999/xlink" x="0px" y="0px"
	 viewBox="-66.3 589.6 584 468.7" style="enable-background:new -66.3 589.6 584 468.7;" xml:space="preserve">
<style type="text/css">
	.st0{fill:#00B9E7;}
	.st1{fill:#FFFFFF;}
</style>
<path class="st0" d="M-17.3,796.2h-26.3V665.9h38.2C11.1,665.9,19,674,19,690v36.8c0,16.3-8.1,24.1-24.1,24.1h-12
	C-17.3,751-17.3,796.2-17.3,796.2z M-11.6,688.2h-5.7v40.4h5.5c3.1,0,4.8-1.7,4.8-4.8v-31.1C-7,689.8-8.5,688.2-11.6,688.2z
	 M65.6,797.4H48.9c-16.3,0-24.1-8.1-24.1-24.1v-84.1c0-16.3,8.1-24.1,24.1-24.1h16.7c16.3,0,24.1,8.1,24.1,24.1v84.1
	C90,789.5,82.1,797.4,65.6,797.4z M59.2,687.2h-3.8c-3.1,0-4.8,1.7-4.8,4.8v78.7c0,3.1,1.7,4.8,4.8,4.8h3.8c3.1,0,4.8-1.7,4.8-4.8
	V692C64,688.6,62.5,687.2,59.2,687.2z M160.1,751.5v44.9H134v-44.7c0-3.1-1.7-4.8-4.8-4.8h-6.5v49.5H96.4V665.9h39
	c16.3,0,24.1,8.1,24.1,24.1v25.3c0,11-4.1,16.7-11,19.4C156.7,736.9,160.1,741.9,160.1,751.5L160.1,751.5z M129.2,688.6H123v36.1
	h6.2c3.1,0,4.8-1.7,4.8-4.8v-26.8C133.8,690.1,132.3,688.6,129.2,688.6L129.2,688.6z M179.9,796.2V689.1h-16v-23.4h57.9v23.4h-16
	v107.1H179.9z M274.8,665.9v23.4h-21.3v30.6h20.6v23.4h-20.6v53.3h-26.1V665.9H274.8z M321.2,797.4h-16.7
	c-16.3,0-24.1-8.1-24.1-24.1v-84.1c0-16.3,8.1-24.1,24.1-24.1h16.7c16.3,0,24.1,8.1,24.1,24.1v84.1
	C345.3,789.5,337.4,797.4,321.2,797.4z M314.7,687.2h-3.8c-3.1,0-4.8,1.7-4.8,4.8v78.7c0,3.1,1.7,4.8,4.8,4.8h3.8
	c3.1,0,4.8-1.7,4.8-4.8V692C319.3,688.6,317.8,687.2,314.7,687.2z M378.3,665.9V773h18.9v23.4h-44.9V665.9H378.3z M428.8,796.2
	h-26.1V665.9h26.1V796.2z M475.6,797.4h-16.7c-16.3,0-24.1-8.1-24.1-24.1v-84.1c0-16.3,8.1-24.1,24.1-24.1h16.7
	c16.3,0,24.1,8.1,24.1,24.1v84.1C499.8,789.5,491.6,797.4,475.6,797.4z M468.9,687.2h-3.8c-3.1,0-4.8,1.7-4.8,4.8v78.7
	c0,3.1,1.7,4.8,4.8,4.8h3.8c3.1,0,4.8-1.7,4.8-4.8V692C473.7,688.6,472.3,687.2,468.9,687.2z M20,891.4v44.9H-6.1v-44.7
	c0-3.1-1.7-4.8-4.8-4.8h-6.5v49.5h-26.2V805.8h39c16.3,0,24.1,8.1,24.1,24.1v25.3c0,11-4.1,16.7-11,19.4C16.6,877,20,882,20,891.4z
	 M-11.1,828.5h-6.2v36.1h6.2c3.1,0,4.8-1.7,4.8-4.8V833C-6.3,830.2-8,828.5-11.1,828.5L-11.1,828.5z M74.7,806v23.2H52.5v29.2h21.3
	v23.4H52.5v31.3h22.7v23.4H26.4V805.8L74.7,806L74.7,806z M97.4,936.3L80,805.8h26.5l9.1,92.5l9.6-92.5h24.1l-17.5,130.5H97.4
	L97.4,936.3z M180.4,936.3h-26.1V805.8h26.1V936.3z M235.8,806v23.2h-22.5v29.2h21.3v23.4h-21.3v31.3H236v23.4h-48.8V805.8
	L235.8,806L235.8,806z M307.1,806l7.4,69.3l6.7-69.3h23.2l-16,130.5h-28.7l-6.9-59.5l-6.5,59.5h-28.7L241.8,806h26.5l6.7,69.8
	l7.4-69.8H307.1L307.1,806z M410.6,889.2v23.9c0,16.3-8.1,24.1-24.1,24.1h-14.6c-16.3,0-24.1-8.1-24.1-24.1v-27.7h25.6v25.3
	c0,3.1,1.7,4.8,4.8,4.8h2.6c3.1,0,4.8-1.7,4.8-4.8v-15.5c0-4.1-1.2-6.2-4.5-8.4l-22.5-16.7c-8.1-5.7-10.5-11-10.5-20.6v-20.8
	c0-16.3,8.1-24.1,24.1-24.1h14.1c16.3,0,24.1,8.1,24.1,24.1v23.9h-25.6v-21.3c0-3.1-1.7-4.8-4.8-4.8h-2.2c-3.1,0-4.8,1.7-4.8,4.8
	v12.2c0,4.1,1.2,6.2,4.5,8.4l22.5,16.5C408.2,874.6,410.6,879.6,410.6,889.2z"/>
<path class="st1" d="M-25.2,607.6c1.7,0,3.6,0.2,5,0.5c1.7,0.2,2.9,1,4.1,1.7c1.2,0.7,1.9,1.7,2.6,3.1c0.7,1.4,1,2.9,1,4.5
	c0,1.9-0.5,3.6-1.2,4.8c-1,1.2-2.2,2.4-4.1,3.1c2.6,0.7,4.1,1.9,5.3,3.6s1.7,4.1,1.7,6.2c0,1.9-0.5,3.6-1.2,5
	c-0.7,1.4-1.7,2.6-3.1,3.6c-1.2,1-2.9,1.7-4.5,2.2c-1.7,0.5-3.3,0.7-5,0.7h-19v-39L-25.2,607.6L-25.2,607.6z M-26.4,623.4
	c1.7,0,2.9-0.5,3.8-1.2c0.9-0.7,1.4-1.9,1.4-3.6c0-1-0.2-1.7-0.5-2.2s-0.7-1-1.2-1.2c-0.5-0.2-1.2-0.5-1.9-0.7
	c-0.7-0.2-1.4-0.2-2.4-0.2h-8.1v9.1H-26.4z M-25.9,639.9c0.7,0,1.7-0.2,2.6-0.2l2.2-0.7c0,0,1-1,1.4-1.7c0.2-0.7,0.5-1.7,0.5-2.6
	c0-2.2-0.7-3.6-1.7-4.3c-1.2-0.7-2.6-1.2-4.5-1.2h-9.3v10.5h8.8V639.9L-25.9,639.9z M-0.1,639.6c1.2,1.2,2.9,1.7,5,1.7
	c1.7,0,3.1-0.5,4.1-1.2c1.2-0.7,1.7-1.7,2.2-2.6h6.7c-1.2,3.3-2.9,5.7-5,7.2c-2.2,1.4-5,2.2-8.1,2.2c-2.2,0-4.3-0.5-6-1.2
	s-3.1-1.7-4.5-3.1c-1.2-1.2-2.2-2.9-2.9-4.8c-0.7-1.7-1-4.1-1-6c0-1.9,0.2-4.1,1-5.7c0.7-1.7,1.7-3.3,3.1-4.8
	c1.2-1.2,2.9-2.4,4.5-3.1c1.7-0.7,3.8-1.2,5.7-1.2c2.4,0,4.5,0.5,6.2,1.4c1.7,1,3.1,2.2,4.3,3.8c1.2,1.6,1.9,3.3,2.6,5.3
	c0.5,2.2,0.7,4.1,0.5,6.2H-2C-2,636.5-1.1,638.7-0.1,639.6z M9,625c-1-1-2.6-1.7-4.3-1.7c-1.2,0-2.2,0.2-3.1,0.7
	c-0.7,0.5-1.4,1-1.9,1.7s-0.7,1.2-1,2.2c-0.2,0.7-0.2,1.2-0.2,1.7h12.7C10.4,627.7,9.7,626,9,625L9,625z M26.9,607.6v14.6h0.2
	c1-1.7,2.2-2.9,3.8-3.6c1.7-0.7,3.1-1.2,4.5-1.2c2.2,0,3.8,0.2,5,0.7s2.4,1.4,3.1,2.6c0.7,1,1.2,2.2,1.7,3.6
	c0.2,1.4,0.5,3.1,0.5,4.8v17.2H38v-15.5c0-2.4-0.5-4.1-1.2-5.3c-0.7-1.2-2.2-1.7-4.1-1.7c-2.2,0-3.6,0.7-4.5,1.9
	c-0.9,1.2-1.4,3.3-1.4,6.2v14.8h-7.7V608C19.3,608.1,26.9,607.6,26.9,607.6L26.9,607.6z M49.1,622.4c0.7-1.2,1.7-2.2,3.1-2.9
	c1.2-0.7,2.6-1.2,4.1-1.7c1.7-0.2,3.1-0.5,4.8-0.5l4.3,0.2c1.4,0.2,2.9,0.7,4.1,1.2c1.2,0.7,2.2,1.4,3.1,2.6c0.7,1,1.2,2.6,1.2,4.1
	v15.1c0,1.2,0.2,2.6,0.2,3.6c0.2,1.2,0.5,2.2,1,2.6h-7.9c-0.2-0.2-0.5-1-0.5-1.2c-0.2-0.5-0.2-1-0.2-1.4c-1.2,1.2-2.6,2.2-4.3,2.6
	c-1.7,0.5-3.3,0.7-5,0.7c-1.2,0-2.6-0.2-3.8-0.5c-1.2-0.2-2.2-0.7-3.1-1.7s-1.9-1.4-2.4-2.4s-0.7-2.4-0.7-3.8c0-1.7,0.2-3.1,0.7-4.1
	c0.7-1,1.2-1.7,2.2-2.6c1-0.7,1.9-1.2,3.1-1.4c1.2-0.2,2.4-0.7,3.6-0.7l3.6-0.5c0,0,2.2-0.2,3.1-0.5c1-0.2,1.7-0.5,2.2-1
	s0.7-1,0.7-1.7s-0.2-1.7-0.5-2.2c-1-0.2-1.2-0.7-1.7-0.7c-0.5-0.2-1-0.5-1.7-0.5c-0.7-0.2-1.2-0.2-1.9-0.2c-1.7,0-2.9,0.2-3.6,1
	c-1,0.7-1.4,1.7-1.7,3.1h-7.4C47.9,625.3,48.4,623.8,49.1,622.4L49.1,622.4z M64.4,633.4c-0.5,0.2-1,0.2-1.7,0.5
	c-0.7,0.2-1.2,0.2-1.7,0.2c-0.7,0.2-1.2,0.2-1.7,0.2c-0.7,0.2-1.2,0.2-1.7,0.5l-1.4,0.7c-0.5,0.2-0.7,0.7-1,1.2s-0.5,1.2-0.5,1.7
	s0.2,1.2,0.5,1.7l1,1.2c0.5,0.2,1,0.5,1.7,0.7s1.2,0.2,1.7,0.2c1.7,0,2.6-0.2,3.6-0.7c0.7-0.5,1.4-1.2,1.7-1.7
	c0.5-0.7,0.7-1.4,0.7-2.2c0.2-0.7,0.2-1.2,0.2-1.7V633C65.2,633.2,64.7,633.4,64.4,633.4L64.4,633.4z M83.1,618.3v4.1h0.2
	c1-1.7,2.2-2.9,3.8-3.6s3.1-1.2,4.8-1.2c2.2,0,3.8,0.2,5,0.7s2.4,1.2,3.1,2.4c0.7,1.2,1.2,2.2,1.7,3.6c0.2,1.4,0.5,3.1,0.5,4.8v17.2
	h-7.6v-15.5c0-2.4-0.5-4.1-1.2-5.3c-0.7-1.2-2.2-1.7-4.1-1.7c-2.2,0-3.6,0.7-4.5,2.2c-1,1.4-1.4,3.3-1.4,6.2V647h-7.6v-28.4
	L83.1,618.3L83.1,618.3z M117.5,623.4c-1.2,0-2.2,0.2-3.1,0.7c-0.7,0.7-1.7,1.2-2.2,2.2s-1,1.7-1.2,3.1c-0.2,1.2-0.2,2.2-0.2,3.1
	l0.2,3.1c0.2,1,0.7,2.2,1,2.9c0.5,0.7,1.2,1.7,2.2,2.2c0.7,0.5,1.7,0.7,3.1,0.7c1.7,0,3.1-0.5,4.3-1.7c1-1,1.7-2.6,1.7-4.1h7.4
	c-0.5,3.8-1.9,6.5-4.3,8.6c-2.6,1.9-5.3,3.1-9.1,3.1c-2.2,0-4.1-0.5-5.7-1.2s-3.1-1.9-4.3-3.1s-2.2-2.9-3.1-4.5
	c-0.7-1.7-1-3.6-1-5.7c0-2.2,0.2-4.1,1-6.2c0.7-1.7,1.7-3.6,2.9-4.8c1.2-1.2,2.9-2.6,4.5-3.1c1.7-0.7,4.1-1.2,6.2-1.2
	c1.7,0,3.1,0.2,4.8,0.7s3.1,1.2,4.1,2.2c1.2,1,2.2,2.2,3.1,3.3c0.7,1.2,1.2,3.1,1.2,4.8h-7.6C122.8,625,120.9,623.4,117.5,623.4
	L117.5,623.4z M-3.7,610.2h15.5v4.1H-3.7V610.2z M141.9,639.6c1.2,1.2,3.1,1.7,5,1.7c1.7,0,3.1-0.5,4.1-1.2c1.2-0.7,1.7-1.7,2.2-2.6
	h6.7c-1.2,3.3-2.9,5.7-5,7.2c-2.2,1.4-5,2.2-8.1,2.2c-2.2,0-4.3-0.5-6-1.2c-1.7-0.2-3.1-1.2-4.5-2.6c-1.2-1.2-2.2-2.9-2.9-4.8
	c-0.7-1.7-1-4.1-1-6c0-1.9,0.2-4.1,1-5.7c0.8-1.6,1.7-3.3,3.1-4.8c1.2-1.2,2.9-2.4,4.5-3.1c1.7-0.7,3.8-1.2,5.7-1.2
	c2.4,0,4.5,0.5,6.2,1.4c1.7,0.9,3.1,2.2,4.3,3.8c1.2,1.7,1.9,3.3,2.6,5.3c0.5,2.2,0.7,4.1,0.5,6.2H140
	C140,636.5,140.7,638.7,141.9,639.6L141.9,639.6z M151,625c-1-1-2.6-1.7-4.3-1.7c-1.2,0-2.2,0.2-3.1,0.7c-0.7,0.5-1.7,1-2.2,1.7
	s-0.7,1.2-1,2.2c-0.2,0.7-0.2,1.2-0.2,1.7h12.7C152.4,627.7,151.9,626,151,625L151,625z"/>
<g>
	<path class="st1" d="M-43.9,971.3c1.1-3.2,2.7-6,4.8-8.4c2.1-2.4,4.7-4.3,7.8-5.6c3.1-1.4,6.5-2,10.4-2c3.9,0,7.3,0.7,10.4,2
		c3,1.4,5.6,3.2,7.7,5.6c2.1,2.4,3.7,5.2,4.8,8.4c1.1,3.2,1.7,6.7,1.7,10.4c0,3.7-0.6,7.1-1.7,10.2s-2.7,5.9-4.8,8.3
		c-2.1,2.3-4.7,4.2-7.7,5.5c-3,1.3-6.5,2-10.4,2c-3.8,0-7.3-0.7-10.4-2c-3.1-1.3-5.7-3.2-7.8-5.5c-2.1-2.3-3.7-5.1-4.8-8.3
		s-1.7-6.6-1.7-10.2C-45.6,978-45.1,974.5-43.9,971.3z M-33.9,987.8c0.5,2,1.3,3.8,2.4,5.4c1.1,1.6,2.5,2.9,4.2,3.8
		c1.7,1,3.8,1.4,6.3,1.4c2.5,0,4.6-0.5,6.3-1.4c1.7-1,3.1-2.2,4.2-3.8c1.1-1.6,1.9-3.4,2.4-5.4c0.5-2,0.7-4,0.7-6.1
		c0-2.2-0.2-4.3-0.7-6.4c-0.5-2.1-1.3-3.9-2.4-5.5c-1.1-1.6-2.5-2.9-4.2-3.9c-1.7-1-3.8-1.4-6.3-1.4c-2.5,0-4.6,0.5-6.3,1.4
		c-1.7,1-3.1,2.2-4.2,3.9c-1.1,1.6-1.9,3.5-2.4,5.5c-0.5,2.1-0.7,4.2-0.7,6.4C-34.6,983.8-34.4,985.9-33.9,987.8z"/>
	<path class="st1" d="M5,965.7v-9.3h41.1v9.3h-15v40.9H20v-40.9H5z"/>
	<path class="st1" d="M51.4,965.7v-9.3h41.1v9.3h-15v40.9h-11v-40.9H51.4z"/>
	<path class="st1" d="M116.7,956.4l18.7,50.1H124l-3.8-11.2h-18.7l-3.9,11.2H86.4l19-50.1H116.7z M117.3,987.2l-6.3-18.4h-0.1
		l-6.5,18.4H117.3z"/>
	<path class="st1" d="M174.6,1006.6l-8.5-34.1h-0.1l-8.4,34.1h-11.2l-13.3-50.1h11l7.9,34.1h0.1l8.7-34.1h10.3l8.6,34.5h0.1
		l8.2-34.5H199l-13.5,50.1H174.6z"/>
	<path class="st1" d="M226.6,956.4l18.8,50.1h-11.4l-3.8-11.2h-18.7l-3.9,11.2h-11.1l19-50.1H226.6z M227.3,987.2l-6.3-18.4h-0.1
		l-6.5,18.4H227.3z"/>
	<path class="st1" d="M266.8,968.5c0.7-2.4,1.9-4.5,3.4-6.3c1.5-1.8,3.4-3.2,5.7-4.2c2.3-1,4.9-1.5,7.8-1.5c2.2,0,4.4,0.4,6.4,1.1
		s3.8,1.7,5.4,3c1.5,1.3,2.8,2.9,3.7,4.8c0.9,1.9,1.4,4.1,1.4,6.5c0,2.5-0.4,4.6-1.2,6.4c-0.8,1.8-1.8,3.4-3.2,4.7
		c-1.3,1.4-2.8,2.6-4.5,3.8c-1.7,1.1-3.3,2.2-5,3.3c-1.7,1.1-3.3,2.3-4.9,3.5c-1.6,1.3-3,2.7-4.2,4.4h23.2v8.6h-36.1
		c0-2.9,0.4-5.3,1.2-7.4c0.8-2.1,1.9-4,3.3-5.7c1.4-1.7,3.1-3.2,5-4.6c1.9-1.4,3.9-2.8,6-4.3c1.1-0.7,2.2-1.5,3.4-2.3
		c1.2-0.8,2.3-1.6,3.3-2.6c1-0.9,1.8-2,2.5-3.2c0.7-1.2,1-2.5,1-4c0-2.4-0.7-4.2-2.1-5.6c-1.4-1.3-3.1-2-5.3-2c-1.5,0-2.7,0.3-3.7,1
		c-1,0.7-1.8,1.6-2.4,2.7c-0.6,1.1-1,2.3-1.3,3.7c-0.3,1.3-0.4,2.7-0.4,4h-9.5C265.7,973.5,266,970.9,266.8,968.5z"/>
	<path class="st1" d="M306.5,969.7c1-3.3,2.3-5.9,3.9-7.8c1.6-2,3.5-3.4,5.7-4.2c2.2-0.8,4.5-1.3,6.9-1.3c2.5,0,4.8,0.4,7,1.3
		c2.2,0.8,4.1,2.2,5.8,4.2c1.7,2,3,4.6,3.9,7.8c1,3.3,1.4,7.3,1.4,12c0,4.9-0.5,9-1.4,12.3c-1,3.3-2.3,5.9-3.9,7.9
		c-1.7,2-3.6,3.4-5.8,4.2c-2.2,0.8-4.5,1.3-7,1.3c-2.4,0-4.7-0.4-6.9-1.3c-2.2-0.8-4.1-2.2-5.7-4.2c-1.6-2-2.9-4.6-3.9-7.9
		c-1-3.3-1.4-7.4-1.4-12.3C305.1,977,305.5,973,306.5,969.7z M315.2,986.9c0.1,2,0.4,3.9,0.9,5.8c0.5,1.9,1.3,3.4,2.4,4.7
		c1.1,1.3,2.6,2,4.6,2c2.1,0,3.6-0.7,4.7-2c1.1-1.3,1.9-2.9,2.4-4.7c0.5-1.8,0.8-3.8,0.9-5.8c0.1-2,0.1-3.7,0.1-5.1
		c0-0.8,0-1.9,0-3.1c0-1.2-0.1-2.4-0.3-3.7c-0.2-1.3-0.4-2.5-0.7-3.8c-0.3-1.2-0.8-2.4-1.4-3.3c-0.6-1-1.4-1.8-2.3-2.4
		c-0.9-0.6-2.1-0.9-3.4-0.9c-1.4,0-2.5,0.3-3.4,0.9s-1.7,1.4-2.2,2.4c-0.6,1-1,2.1-1.4,3.3c-0.3,1.2-0.6,2.5-0.7,3.8
		c-0.1,1.3-0.2,2.5-0.2,3.7c0,1.2,0,2.2,0,3.1C315,983.2,315.1,984.9,315.2,986.9z"/>
	<path class="st1" d="M358.1,1006.6v-31.9h-12.4v-7.5c1.7,0,3.4-0.1,5-0.4c1.6-0.3,3.1-0.8,4.4-1.6c1.3-0.8,2.4-1.8,3.3-3.1
		c0.9-1.3,1.5-2.8,1.8-4.7h7.9v49.2H358.1z"/>
	<path class="st1" d="M390,965.6l-2,11.2l0.1,0.1c1.4-1.4,2.8-2.3,4.4-2.9c1.5-0.6,3.3-0.9,5.3-0.9c2.4,0,4.6,0.4,6.5,1.3
		c1.9,0.9,3.5,2.1,4.7,3.6c1.3,1.5,2.3,3.3,2.9,5.3c0.7,2,1,4.2,1,6.5c0,2.5-0.5,4.9-1.5,7.1c-1,2.2-2.3,4.1-4,5.7
		c-1.7,1.6-3.6,2.8-5.8,3.7c-2.2,0.9-4.5,1.3-7,1.2c-2.4,0-4.7-0.3-6.8-0.9c-2.2-0.6-4.1-1.6-5.8-2.9c-1.7-1.3-3-2.9-4-4.9
		c-1-1.9-1.5-4.2-1.6-6.8h10c0.2,2.2,1.1,4,2.5,5.4c1.5,1.3,3.3,2,5.5,2c1.3,0,2.5-0.3,3.5-0.8c1.1-0.5,1.9-1.2,2.7-2.1
		c0.7-0.9,1.3-1.9,1.7-3c0.4-1.1,0.6-2.3,0.6-3.5c0-1.3-0.2-2.5-0.6-3.6c-0.4-1.1-0.9-2.1-1.7-3c-0.8-0.8-1.6-1.5-2.7-2
		c-1-0.5-2.2-0.7-3.6-0.7c-1.8,0-3.2,0.3-4.4,0.9c-1.1,0.6-2.2,1.6-3.2,3h-9l4.8-27.2h27.5v8.2H390z"/>
</g>
</svg>
