<svg xmlns="http://www.w3.org/2000/svg" viewBox="-9.9 153.6 631.5 493.5" enable-background="new -9.9 153.6 631.5 493.5"><style type="text/css">.st0{enable-background:new ;} .st1{fill:#FFFFFF;} .st2{fill:#00B9E7;}</style><path class="st1" d="M34.9 605.2c1.2-3.1 2.9-6.2 4.8-8.6 2.2-2.6 4.8-4.3 7.7-5.7 3.1-1.4 6.5-2.2 10.5-2.2s7.4.7 10.5 2.2c3.1 1.4 5.7 3.1 7.7 5.7 2.2 2.6 3.8 5.3 4.8 8.6 1.2 3.1 1.7 6.7 1.7 10.5 0 3.6-.7 7.2-1.7 10.3-1.2 3.1-2.9 6-4.8 8.4-2.2 2.4-4.8 4.3-7.7 5.5s-6.5 2.2-10.5 2.2-7.4-.7-10.5-2.2-5.7-3.1-7.7-5.5c-2.2-2.4-3.8-5-4.8-8.4-1.2-3.1-1.7-6.7-1.7-10.3s.5-7.2 1.7-10.5zm10 16.7c.5 2.2 1.2 3.8 2.4 5.3 1.2 1.7 2.6 2.9 4.3 4.1 1.7 1 4.1 1.4 6.2 1.4 2.6 0 4.8-.5 6.2-1.4 1.7-1 3.1-2.4 4.3-4.1 1.2-1.7 1.9-3.6 2.4-5.3.5-2.2.7-4.1.7-6.2 0-2.2-.2-4.3-.7-6.5-.5-2.2-1.2-4.1-2.4-5.5-1.2-1.7-2.6-2.9-4.3-4.1-1.7-1-4.1-1.4-6.2-1.4s-4.8.5-6.2 1.4c-1.7 1-3.1 2.4-4.3 4.1-1.2 1.7-1.9 3.6-2.4 5.5-.5 2.2-.7 4.3-.7 6.5 0 2.4.3 4.3.7 6.2zm38.8-22.5v-9.3h41.6v9.3h-15.3v41.4h-11v-41.4h-15.3zm47.1 0v-9.3h41.4v9.3h-15.3v41.4h-11v-41.4h-15.1zm65-9.3l18.9 50.7h-11.5l-3.8-11.2h-18.9l-4.1 11.2h-11.2l19.1-50.7h11.5zm.7 31.3l-6.2-18.6h-.2l-6.5 18.6h12.9zm57.4 19.6l-8.6-34.7h-.3l-8.4 34.7h-11.2l-13.4-50.6h11l8.1 34.7h.2l8.6-34.7h10.5l8.6 34.9h.2l8.4-34.9h11l-13.7 50.6h-11zm52.1-50.9l18.9 50.7h-11.5l-3.8-11.2h-18.9l-4.1 11.2h-11.2l19.1-50.7h11.5zm1 31.3l-6.2-18.6h-.2l-6.5 18.6h12.9zm38.9-18.9c.7-2.6 1.9-4.5 3.6-6.2 1.7-1.7 3.6-3.1 5.7-4.3 2.4-1 4.8-1.7 7.9-1.7 2.4 0 4.5.2 6.5 1s4.1 1.7 5.3 3.1c1.7 1.2 2.9 3.1 3.8 4.8 1 1.9 1.4 4.1 1.4 6.5 0 2.6-.5 4.8-1.2 6.5-.7 1.7-1.9 3.6-3.1 4.8-1.2 1.4-2.9 2.6-4.5 3.8s-3.6 2.4-5 3.6c-1.7 1.2-3.6 2.4-5 3.6-1.7 1.2-3.1 2.9-4.3 4.5h23.4v8.6h-36.6c0-2.9.5-5.3 1.2-7.6.7-2.2 1.9-4.1 3.6-5.7 1.4-1.7 3.1-3.1 5-4.8 1.9-1.4 4.1-2.9 6.2-4.3 1.2-.7 2.2-1.7 3.6-2.4 1.2-.7 2.4-1.7 3.6-2.6 1-1 1.9-2.2 2.6-3.1.7-1.2 1-2.6 1-4.1 0-2.6-.7-4.3-2.2-5.7-1.4-1.4-3.1-2.2-5.3-2.2-1.4 0-2.6.2-3.8 1-1 .7-1.9 1.7-2.6 2.6-.7 1.2-1 2.4-1.2 3.6-.2 1.4-.5 2.6-.5 4.1h-9.6c-.4-2.6-.2-5 .5-7.4zm39.9 1.2c1-3.3 2.4-6 4.1-7.9 1.7-2.2 3.6-3.6 5.7-4.3s4.5-1.2 6.9-1.2c2.6 0 4.8.5 7.2 1.2 2.2.7 4.1 2.4 5.7 4.3 1.7 2.2 3.1 4.8 4.1 7.9 1 3.3 1.4 7.2 1.4 12.2s-.5 9.1-1.4 12.4c-1 3.3-2.4 6-4.1 8.1-1.7 2.2-3.6 3.6-5.7 4.3-2.2.7-4.5 1.2-7.2 1.2s-4.8-.5-6.9-1.2c-2.2-.7-4.1-2.4-5.7-4.3-1.7-2.2-3.1-4.8-4.1-8.1s-1.4-7.4-1.4-12.4c0-4.7.5-8.8 1.4-12.2zm8.9 17.3c.2 2.2.5 4.1 1 5.7.5 1.9 1.2 3.6 2.4 4.8s2.6 2.2 4.8 2.2 3.6-.7 4.8-2.2c1.2-1.2 1.9-2.9 2.6-4.8.5-1.9.7-3.8 1-5.7.2-2.2.2-3.8.2-5 0-.7 0-1.9-.2-3.1l-.2-3.8s-.5-2.6-.7-3.8-.7-2.4-1.4-3.6c-.7-1-1.4-1.7-2.4-2.6-1-.7-2.2-1-3.6-1s-2.6.2-3.6 1-1.7 1.4-2.4 2.6c-.7 1-1 2.2-1.4 3.6-.5 1.4-.7 2.6-.7 3.8-.2 1.2-.2 2.6-.2 3.8s-.2 2.2-.2 3.1c0 1.4 0 3 .2 5zm42.3 20v-32.3h-12.7v-7.6c1.7.2 3.6-.2 5-.5 1.7-.2 3.1-.7 4.5-1.7 1.2-.7 2.6-1.7 3.3-3.1 1-1.2 1.7-2.9 1.7-4.8h8.1v49.7h-10l.1.3zm17.2-11.4v-9.1l21.8-28.9h9.1v29.9h6.5v8.4h-6.5v11.5h-9.6v-11.5l-21.3-.3zm20.8-25.6l-12.9 17.2h13.1l-.2-17.2z"/><path class="st2" d="M61.7 429.7h-26.3v-130.3h38.2c16.5 0 24.4 8.1 24.4 24.1v36.8c0 16.3-8.1 24.1-24.1 24.1h-12c-.2.1-.2 45.3-.2 45.3zm5.7-108h-5.7v40.4h5.5c3.1 0 4.8-1.7 4.8-4.8v-31.1c0-2.9-1.5-4.5-4.6-4.5zm77.2 109.2h-16.7c-16.3 0-24.1-8.1-24.1-24.1v-84.1c0-16.3 8.1-24.1 24.1-24.1h16.7c16.3 0 24.1 8.1 24.1 24.1v84.1c.3 16.2-7.6 24.1-24.1 24.1zm-6.4-110.2h-3.8c-3.1 0-4.8 1.7-4.8 4.8v78.7c0 3.1 1.7 4.8 4.8 4.8h3.8c3.1 0 4.8-1.7 4.8-4.8v-78.7c0-3.4-1.5-4.8-4.8-4.8zm100.9 64.3v44.9h-26.1v-44.7c0-3.1-1.7-4.8-4.8-4.8h-6.5v49.5h-26.3v-130.5h39c16.3 0 24.1 8.1 24.1 24.1v25.3c0 11-4.1 16.7-11 19.4 8.2 2.2 11.6 7.2 11.6 16.8zm-30.9-62.9h-6.2v36.1h6.2c3.1 0 4.8-1.7 4.8-4.8v-26.8c-.2-3-1.7-4.5-4.8-4.5zm50.7 107.6v-107.1h-16v-23.4h57.9v23.4h-16v107.1h-25.9zm94.9-130.3v23.4h-21.3v30.6h20.6v23.4h-20.6v53.3h-26.1v-130.7h47.4zm46.4 131.5h-16.7c-16.3 0-24.1-8.1-24.1-24.1v-84.1c0-16.3 8.1-24.1 24.1-24.1h16.7c16.3 0 24.1 8.1 24.1 24.1v84.1c0 16.2-7.9 24.1-24.1 24.1zm-6.5-110.2h-3.8c-3.1 0-4.8 1.7-4.8 4.8v78.7c0 3.1 1.7 4.8 4.8 4.8h3.8c3.1 0 4.8-1.7 4.8-4.8v-78.7c-.2-3.4-1.7-4.8-4.8-4.8zm63.6-21.3v107.1h18.9v23.4h-44.9v-130.5h26zm50.5 130.3h-26.1v-130.3h26.1v130.3zm46.8 1.2h-16.7c-16.3 0-24.1-8.1-24.1-24.1v-84.1c0-16.3 8.1-24.1 24.1-24.1h16.7c16.3 0 24.1 8.1 24.1 24.1v84.1c.1 16.2-8.1 24.1-24.1 24.1zm-6.7-110.2h-3.8c-3.1 0-4.8 1.7-4.8 4.8v78.7c0 3.1 1.7 4.8 4.8 4.8h3.8c3.1 0 4.8-1.7 4.8-4.8v-78.7c0-3.4-1.4-4.8-4.8-4.8zm-448.9 204.2v44.9h-26.1v-44.7c0-3.1-1.7-4.8-4.8-4.8h-6.5v49.5h-26.2v-130.5h39c16.3 0 24.1 8.1 24.1 24.1v25.3c0 11-4.1 16.7-11 19.4 8.1 2.4 11.5 7.4 11.5 16.8zm-31.1-62.9h-6.2v36.1h6.2c3.1 0 4.8-1.7 4.8-4.8v-26.8c0-2.8-1.7-4.5-4.8-4.5zm85.8-22.5v23.2h-22.2v29.2h21.3v23.4h-21.3v31.3h22.7v23.4h-48.8v-130.7l48.3.2zm22.7 130.3l-17.4-130.5h26.5l9.1 92.5 9.6-92.5h24.1l-17.5 130.5h-34.4zm83 0h-26.1v-130.5h26.1v130.5zm55.4-130.3v23.2h-22.5v29.2h21.3v23.4h-21.3v31.3h22.7v23.4h-48.8v-130.7l48.6.2zm71.3 0l7.4 69.3 6.7-69.3h23.2l-16 130.5h-28.7l-6.9-59.5-6.5 59.5h-28.7l-15.8-130.5h26.5l6.7 69.8 7.4-69.8h24.7zm103.5 83.2v23.9c0 16.3-8.1 24.1-24.1 24.1h-14.6c-16.3 0-24.1-8.1-24.1-24.1v-27.7h25.6v25.3c0 3.1 1.7 4.8 4.8 4.8h2.6c3.1 0 4.8-1.7 4.8-4.8v-15.5c0-4.1-1.2-6.2-4.5-8.4l-22.5-16.7c-8.1-5.7-10.5-11-10.5-20.6v-20.8c0-16.3 8.1-24.1 24.1-24.1h14.1c16.3 0 24.1 8.1 24.1 24.1v23.9h-25.6v-21.3c0-3.1-1.7-4.8-4.8-4.8h-2.2c-3.1 0-4.8 1.7-4.8 4.8v12.2c0 4.1 1.2 6.2 4.5 8.4l22.5 16.5c8.2 6.2 10.6 11.2 10.6 20.8z"/><path class="st1" d="M53.8 241.1c1.7 0 3.6.2 5 .5 1.7.2 2.9 1 4.1 1.7 1.2.7 1.9 1.7 2.6 3.1s1 2.9 1 4.5c0 1.9-.5 3.6-1.2 4.8-1 1.2-2.2 2.4-4.1 3.1 2.6.7 4.1 1.9 5.3 3.6s1.7 4.1 1.7 6.2c0 1.9-.5 3.6-1.2 5s-1.7 2.6-3.1 3.6c-1.2 1-2.9 1.7-4.5 2.2-1.7.5-3.3.7-5 .7h-19v-39h18.4zm-1.2 15.8c1.7 0 2.9-.5 3.8-1.2s1.4-1.9 1.4-3.6c0-1-.2-1.7-.5-2.2s-.7-1-1.2-1.2-1.2-.5-1.9-.7c-.7-.2-1.4-.2-2.4-.2h-8.1v9.1h8.9zm.5 16.5c.7 0 1.7-.2 2.6-.2l2.2-.7s1-1 1.4-1.7c.2-.7.5-1.7.5-2.6 0-2.2-.7-3.6-1.7-4.3-1.2-.7-2.6-1.2-4.5-1.2h-9.3v10.5h8.8v.2zm25.8-.3c1.2 1.2 2.9 1.7 5 1.7 1.7 0 3.1-.5 4.1-1.2 1.2-.7 1.7-1.7 2.2-2.6h6.7c-1.2 3.3-2.9 5.7-5 7.2-2.2 1.4-5 2.2-8.1 2.2-2.2 0-4.3-.5-6-1.2s-3.1-1.7-4.5-3.1c-1.2-1.2-2.2-2.9-2.9-4.8-.7-1.7-1-4.1-1-6s.2-4.1 1-5.7c.7-1.7 1.7-3.3 3.1-4.8 1.2-1.2 2.9-2.4 4.5-3.1 1.7-.7 3.8-1.2 5.7-1.2 2.4 0 4.5.5 6.2 1.4 1.7 1 3.1 2.2 4.3 3.8s1.9 3.3 2.6 5.3c.5 2.2.7 4.1.5 6.2h-20.3c0 2.8.9 5 1.9 5.9zm9.1-14.6c-1-1-2.6-1.7-4.3-1.7-1.2 0-2.2.2-3.1.7-.7.5-1.4 1-1.9 1.7s-.7 1.2-1 2.2c-.2.7-.2 1.2-.2 1.7h12.7c-.8-1.9-1.5-3.6-2.2-4.6zm17.9-17.4v14.6h.2c1-1.7 2.2-2.9 3.8-3.6 1.7-.7 3.1-1.2 4.5-1.2 2.2 0 3.8.2 5 .7 1.2.5 2.4 1.4 3.1 2.6.7 1 1.2 2.2 1.7 3.6.2 1.4.5 3.1.5 4.8v17.2h-7.7v-15.5c0-2.4-.5-4.1-1.2-5.3s-2.2-1.7-4.1-1.7c-2.2 0-3.6.7-4.5 1.9s-1.4 3.3-1.4 6.2v14.8h-7.7v-38.7c.2.1 7.8-.4 7.8-.4zm22.2 14.8c.7-1.2 1.7-2.2 3.1-2.9 1.2-.7 2.6-1.2 4.1-1.7 1.7-.2 3.1-.5 4.8-.5l4.3.2c1.4.2 2.9.7 4.1 1.2 1.2.7 2.2 1.4 3.1 2.6.7 1 1.2 2.6 1.2 4.1v15.1c0 1.2.2 2.6.2 3.6.2 1.2.5 2.2 1 2.6h-7.9c-.2-.2-.5-1-.5-1.2-.2-.5-.2-1-.2-1.4-1.2 1.2-2.6 2.2-4.3 2.6-1.7.5-3.3.7-5 .7-1.2 0-2.6-.2-3.8-.5-1.2-.2-2.2-.7-3.1-1.7s-1.9-1.4-2.4-2.4-.7-2.4-.7-3.8c0-1.7.2-3.1.7-4.1.7-1 1.2-1.7 2.2-2.6 1-.7 1.9-1.2 3.1-1.4 1.2-.2 2.4-.7 3.6-.7l3.6-.5s2.2-.2 3.1-.5c1-.2 1.7-.5 2.2-1 .5-.5.7-1 .7-1.7s-.2-1.7-.5-2.2c-1-.2-1.2-.7-1.7-.7-.5-.2-1-.5-1.7-.5-.7-.2-1.2-.2-1.9-.2-1.7 0-2.9.2-3.6 1-1 .7-1.4 1.7-1.7 3.1h-7.4c.1-1.7.6-3.2 1.3-4.6zm15.3 11c-.5.2-1 .2-1.7.5-.7.2-1.2.2-1.7.2-.7.2-1.2.2-1.7.2-.7.2-1.2.2-1.7.5l-1.4.7c-.5.2-.7.7-1 1.2s-.5 1.2-.5 1.7.2 1.2.5 1.7l1 1.2c.5.2 1 .5 1.7.7.7.2 1.2.2 1.7.2 1.7 0 2.6-.2 3.6-.7.7-.5 1.4-1.2 1.7-1.7.5-.7.7-1.4.7-2.2.2-.7.2-1.2.2-1.7v-2.9c-.6.2-1.1.4-1.4.4zm18.7-15.1v4.1h.2c1-1.7 2.2-2.9 3.8-3.6s3.1-1.2 4.8-1.2c2.2 0 3.8.2 5 .7 1.2.5 2.4 1.2 3.1 2.4s1.2 2.2 1.7 3.6c.2 1.4.5 3.1.5 4.8v17.2h-7.6v-15.5c0-2.4-.5-4.1-1.2-5.3s-2.2-1.7-4.1-1.7c-2.2 0-3.6.7-4.5 2.2-1 1.4-1.4 3.3-1.4 6.2v14.8h-7.6v-28.4l7.3-.3zm34.4 5.1c-1.2 0-2.2.2-3.1.7-.7.7-1.7 1.2-2.2 2.2-.5 1-1 1.7-1.2 3.1-.2 1.2-.2 2.2-.2 3.1l.2 3.1c.2 1 .7 2.2 1 2.9.5.7 1.2 1.7 2.2 2.2.7.5 1.7.7 3.1.7 1.7 0 3.1-.5 4.3-1.7 1-1 1.7-2.6 1.7-4.1h7.4c-.5 3.8-1.9 6.5-4.3 8.6-2.6 1.9-5.3 3.1-9.1 3.1-2.2 0-4.1-.5-5.7-1.2s-3.1-1.9-4.3-3.1-2.2-2.9-3.1-4.5c-.7-1.7-1-3.6-1-5.7 0-2.2.2-4.1 1-6.2.7-1.7 1.7-3.6 2.9-4.8 1.2-1.2 2.9-2.6 4.5-3.1 1.7-.7 4.1-1.2 6.2-1.2 1.7 0 3.1.2 4.8.7 1.7.5 3.1 1.2 4.1 2.2 1.2 1 2.2 2.2 3.1 3.3.7 1.2 1.2 3.1 1.2 4.8h-7.6c-.6-3.5-2.5-5.1-5.9-5.1zm-121.2-13.2h15.5v4.1h-15.5v-4.1zm145.6 29.4c1.2 1.2 3.1 1.7 5 1.7 1.7 0 3.1-.5 4.1-1.2 1.2-.7 1.7-1.7 2.2-2.6h6.7c-1.2 3.3-2.9 5.7-5 7.2-2.2 1.4-5 2.2-8.1 2.2-2.2 0-4.3-.5-6-1.2-1.7-.2-3.1-1.2-4.5-2.6-1.2-1.2-2.2-2.9-2.9-4.8-.7-1.7-1-4.1-1-6s.2-4.1 1-5.7 1.7-3.3 3.1-4.8c1.2-1.2 2.9-2.4 4.5-3.1 1.7-.7 3.8-1.2 5.7-1.2 2.4 0 4.5.5 6.2 1.4s3.1 2.2 4.3 3.8c1.2 1.7 1.9 3.3 2.6 5.3.5 2.2.7 4.1.5 6.2h-20.3c0 2.3.7 4.5 1.9 5.4zm9.1-14.6c-1-1-2.6-1.7-4.3-1.7-1.2 0-2.2.2-3.1.7-.7.5-1.7 1-2.2 1.7-.5.7-.7 1.2-1 2.2-.2.7-.2 1.2-.2 1.7h12.7c-.5-1.9-1-3.6-1.9-4.6z"/></svg>