<svg xmlns="http://www.w3.org/2000/svg" viewBox="0 0 256 256" enable-background="new 0 0 256 256"><style type="text/css">.st0{enable-background:new ;} .st1{fill:#FFFFFF;} .st2{fill:#00B9E7;}</style><g class="st0"><path class="st1" d="M14.6 215.5c.5-1.3 1.2-2.6 2-3.6.9-1.1 2-1.8 3.2-2.4 1.3-.6 2.7-.9 4.4-.9s3.1.3 4.4.9c1.3.6 2.4 1.3 3.2 2.4.9 1.1 1.6 2.2 2 3.6.5 1.3.7 2.8.7 4.4 0 1.5-.3 3-.7 4.3-.5 1.3-1.2 2.5-2 3.5-.9 1-2 1.8-3.2 2.3s-2.7.9-4.4.9c-1.7 0-3.1-.3-4.4-.9-1.3-.6-2.4-1.3-3.2-2.3-.9-1-1.6-2.1-2-3.5-.5-1.3-.7-2.8-.7-4.3s.2-3 .7-4.4zm4.2 7c.2.9.5 1.6 1 2.2.5.7 1.1 1.2 1.8 1.7.7.4 1.7.6 2.6.6 1.1 0 2-.2 2.6-.6.7-.4 1.3-1 1.8-1.7s.8-1.5 1-2.2c.2-.9.3-1.7.3-2.6 0-.9-.1-1.8-.3-2.7-.2-.9-.5-1.7-1-2.3-.5-.7-1.1-1.2-1.8-1.7-.7-.4-1.7-.6-2.6-.6s-2 .2-2.6.6c-.7.4-1.3 1-1.8 1.7s-.8 1.5-1 2.3c-.2.9-.3 1.8-.3 2.7 0 1 .1 1.8.3 2.6zM35 213.1v-3.9h17.4v3.9h-6.4v17.3h-4.6v-17.3h-6.4zM54.7 213.1v-3.9h17.3v3.9h-6.4v17.3h-4.6v-17.3h-6.3zM81.9 209.2l7.9 21.2h-4.8l-1.6-4.7h-7.9l-1.7 4.7h-4.7l8-21.2h4.8zm.3 13.1l-2.6-7.8h-.1l-2.7 7.8h5.4zM106.2 230.5l-3.6-14.5h-.1l-3.5 14.5h-4.7l-5.6-21.2h4.6l3.4 14.5h.1l3.6-14.5h4.4l3.6 14.6h.1l3.5-14.6h4.6l-5.8 21.2h-4.6zM128 209.2l7.9 21.2h-4.8l-1.6-4.7h-7.9l-1.7 4.7h-4.7l8-21.2h4.8zm.4 13.1l-2.6-7.8h-.1l-2.7 7.8h5.4zM144.7 214.4c.3-1.1.8-1.9 1.5-2.6.7-.7 1.5-1.3 2.4-1.8 1-.4 2-.7 3.3-.7 1 0 1.9.1 2.7.4s1.7.7 2.2 1.3c.7.5 1.2 1.3 1.6 2 .4.8.6 1.7.6 2.7 0 1.1-.2 2-.5 2.7-.3.7-.8 1.5-1.3 2-.5.6-1.2 1.1-1.9 1.6s-1.5 1-2.1 1.5c-.7.5-1.5 1-2.1 1.5-.7.5-1.3 1.2-1.8 1.9h9.8v3.6h-15.3c0-1.2.2-2.2.5-3.2.3-.9.8-1.7 1.5-2.4.6-.7 1.3-1.3 2.1-2 .8-.6 1.7-1.2 2.6-1.8.5-.3.9-.7 1.5-1 .5-.3 1-.7 1.5-1.1.4-.4.8-.9 1.1-1.3.3-.5.4-1.1.4-1.7 0-1.1-.3-1.8-.9-2.4-.6-.6-1.3-.9-2.2-.9-.6 0-1.1.1-1.6.4-.4.3-.8.7-1.1 1.1-.3.5-.4 1-.5 1.5-.1.6-.2 1.1-.2 1.7h-4c-.2-1-.1-2 .2-3zM161.4 214.9c.4-1.4 1-2.5 1.7-3.3.7-.9 1.5-1.5 2.4-1.8.9-.3 1.9-.5 2.9-.5 1.1 0 2 .2 3 .5.9.3 1.7 1 2.4 1.8.7.9 1.3 2 1.7 3.3.4 1.4.6 3 .6 5.1 0 2.1-.2 3.8-.6 5.2s-1 2.5-1.7 3.4c-.7.9-1.5 1.5-2.4 1.8-.9.3-1.9.5-3 .5s-2-.2-2.9-.5c-.9-.3-1.7-1-2.4-1.8-.7-.9-1.3-2-1.7-3.4-.4-1.4-.6-3.1-.6-5.2 0-2 .2-3.7.6-5.1zm3.7 7.2c.1.9.2 1.7.4 2.4.2.8.5 1.5 1 2s1.1.9 2 .9 1.5-.3 2-.9c.5-.5.8-1.2 1.1-2 .2-.8.3-1.6.4-2.4.1-.9.1-1.6.1-2.1 0-.3 0-.8-.1-1.3l-.1-1.6s-.2-1.1-.3-1.6-.3-1-.6-1.5c-.3-.4-.6-.7-1-1.1-.4-.3-.9-.4-1.5-.4s-1.1.1-1.5.4-.7.6-1 1.1c-.3.4-.4.9-.6 1.5s-.3 1.1-.3 1.6c-.1.5-.1 1.1-.1 1.6s-.1.9-.1 1.3c.1.6.1 1.3.2 2.1zM182.8 230.5v-13.5h-5.3v-3.2c.7.1 1.5-.1 2.1-.2.7-.1 1.3-.3 1.9-.7.5-.3 1.1-.7 1.4-1.3.4-.5.7-1.2.7-2h3.4v20.8h-4.2v.1zM190 225.7v-3.8l9.1-12.1h3.8v12.5h2.7v3.5h-2.7v4.8h-4v-4.8l-8.9-.1zm8.7-10.7l-5.4 7.2h5.5l-.1-7.2z"/></g><path class="st2" d="M25.8 142.1h-11v-54.5h16c6.9 0 10.2 3.4 10.2 10.1v15.4c0 6.8-3.4 10.1-10.1 10.1h-5c-.1 0-.1 18.9-.1 18.9zm2.4-45.2h-2.4v16.9h2.3c1.3 0 2-.7 2-2v-13c0-1.2-.6-1.9-1.9-1.9zM60.5 142.6h-7c-6.8 0-10.1-3.4-10.1-10.1v-35.2c0-6.8 3.4-10.1 10.1-10.1h7c6.8 0 10.1 3.4 10.1 10.1v35.2c.1 6.8-3.2 10.1-10.1 10.1zm-2.7-46.1h-1.6c-1.3 0-2 .7-2 2v32.9c0 1.3.7 2 2 2h1.6c1.3 0 2-.7 2-2v-32.9c0-1.4-.6-2-2-2zM100 123.4v18.8h-10.9v-18.7c0-1.3-.7-2-2-2h-2.7v20.7h-11v-54.6h16.3c6.8 0 10.1 3.4 10.1 10.1v10.6c0 4.6-1.7 7-4.6 8.1 3.4.9 4.8 3 4.8 7zm-12.9-26.3h-2.6v15.1h2.6c1.3 0 2-.7 2-2v-11.2c-.1-1.3-.7-1.9-2-1.9zM108.3 142.1v-44.8h-6.7v-9.8h24.2v9.8h-6.7v44.8h-10.8zM148 87.6v9.8h-8.9v12.8h8.6v9.8h-8.6v22.3h-10.9v-54.7h19.8zM167.4 142.6h-7c-6.8 0-10.1-3.4-10.1-10.1v-35.2c0-6.8 3.4-10.1 10.1-10.1h7c6.8 0 10.1 3.4 10.1 10.1v35.2c0 6.8-3.3 10.1-10.1 10.1zm-2.7-46.1h-1.6c-1.3 0-2 .7-2 2v32.9c0 1.3.7 2 2 2h1.6c1.3 0 2-.7 2-2v-32.9c-.1-1.4-.7-2-2-2zM191.3 87.6v44.8h7.9v9.8h-18.8v-54.6h10.9zM212.4 142.1h-10.9v-54.5h10.9v54.5zM232 142.6h-7c-6.8 0-10.1-3.4-10.1-10.1v-35.2c0-6.8 3.4-10.1 10.1-10.1h7c6.8 0 10.1 3.4 10.1 10.1v35.2c0 6.8-3.4 10.1-10.1 10.1zm-2.8-46.1h-1.6c-1.3 0-2 .7-2 2v32.9c0 1.3.7 2 2 2h1.6c1.3 0 2-.7 2-2v-32.9c0-1.4-.6-2-2-2zM41.4 181.9v18.8h-10.9v-18.7c0-1.3-.7-2-2-2h-2.7v20.7h-11v-54.6h16.3c6.8 0 10.1 3.4 10.1 10.1v10.6c0 4.6-1.7 7-4.6 8.1 3.4 1 4.8 3.1 4.8 7zm-13-26.3h-2.6v15.1h2.6c1.3 0 2-.7 2-2v-11.2c0-1.2-.7-1.9-2-1.9zM64.3 146.2v9.7h-9.3v12.2h8.9v9.8h-8.9v13.1h9.5v9.8h-20.4v-54.7l20.2.1zM73.8 200.7l-7.3-54.6h11.1l3.8 38.7 4-38.7h10.1l-7.3 54.6h-14.4zM108.5 200.7h-10.9v-54.6h10.9v54.6zM131.7 146.2v9.7h-9.4v12.2h8.9v9.8h-8.9v13.1h9.5v9.8h-20.4v-54.7l20.3.1zM161.5 146.2l3.1 29 2.8-29h9.7l-6.7 54.6h-12l-2.9-24.9-2.7 24.9h-12l-6.6-54.6h11.1l2.8 29.2 3.1-29.2h10.3zM204.8 181v10c0 6.8-3.4 10.1-10.1 10.1h-6.1c-6.8 0-10.1-3.4-10.1-10.1v-11.6h10.7v10.6c0 1.3.7 2 2 2h1.1c1.3 0 2-.7 2-2v-6.5c0-1.7-.5-2.6-1.9-3.5l-9.4-7c-3.4-2.4-4.4-4.6-4.4-8.6v-8.7c0-6.8 3.4-10.1 10.1-10.1h5.9c6.8 0 10.1 3.4 10.1 10.1v10h-10.7v-8.9c0-1.3-.7-2-2-2h-.9c-1.3 0-2 .7-2 2v5.1c0 1.7.5 2.6 1.9 3.5l9.4 6.9c3.4 2.6 4.4 4.7 4.4 8.7z"/><path class="st1" d="M22.5 63.2c.7 0 1.5.1 2.1.2.7.1 1.2.4 1.7.7s.8.7 1.1 1.3.4 1.2.4 1.9c0 .8-.2 1.5-.5 2-.4.5-.9 1-1.7 1.3 1.1.3 1.7.8 2.2 1.5.5.7.7 1.7.7 2.6 0 .8-.2 1.5-.5 2.1-.3.6-.7 1.1-1.3 1.5-.5.4-1.2.7-1.9.9-.7.2-1.4.3-2.1.3h-7.9v-16.3h7.7zm-.5 6.6c.7 0 1.2-.2 1.6-.5.4-.3.6-.8.6-1.5 0-.4-.1-.7-.2-.9s-.3-.4-.5-.5c-.2-.1-.5-.2-.8-.3-.3-.1-.6-.1-1-.1h-3.4v3.8h3.7zm.2 6.9c.3 0 .7-.1 1.1-.1l.9-.3s.4-.4.6-.7c.1-.3.2-.7.2-1.1 0-.9-.3-1.5-.7-1.8-.5-.3-1.1-.5-1.9-.5h-3.9v4.4h3.7v.1zM33 76.6c.5.5 1.2.7 2.1.7.7 0 1.3-.2 1.7-.5.5-.3.7-.7.9-1.1h2.8c-.5 1.4-1.2 2.4-2.1 3-.9.6-2.1.9-3.4.9-.9 0-1.8-.2-2.5-.5s-1.3-.7-1.9-1.3c-.5-.5-.9-1.2-1.2-2-.3-.7-.4-1.7-.4-2.5s.1-1.7.4-2.4c.3-.7.7-1.4 1.3-2 .5-.5 1.2-1 1.9-1.3s1.6-.5 2.4-.5c1 0 1.9.2 2.6.6.7.4 1.3.9 1.8 1.6.5.7.8 1.4 1.1 2.2.2.9.3 1.7.2 2.6h-8.5c0 1.2.4 2.1.8 2.5zm3.8-6.1c-.4-.4-1.1-.7-1.8-.7-.5 0-.9.1-1.3.3-.3.2-.6.4-.8.7s-.3.5-.4.9c-.1.3-.1.5-.1.7h5.3c-.3-.8-.6-1.5-.9-1.9zM44.3 63.2v6.1h.1c.4-.7.9-1.2 1.6-1.5.7-.3 1.3-.5 1.9-.5.9 0 1.6.1 2.1.3.5.2 1 .6 1.3 1.1.3.4.5.9.7 1.5.1.6.2 1.3.2 2v7.2h-3.2v-6.5c0-1-.2-1.7-.5-2.2-.3-.5-.9-.7-1.7-.7-.9 0-1.5.3-1.9.8s-.6 1.4-.6 2.6v6.2h-3.2v-16.2l3.2-.2zM53.6 69.4c.3-.5.7-.9 1.3-1.2.5-.3 1.1-.5 1.7-.7.7-.1 1.3-.2 2-.2l1.8.1c.6.1 1.2.3 1.7.5.5.3.9.6 1.3 1.1.3.4.5 1.1.5 1.7v6.3c0 .5.1 1.1.1 1.5.1.5.2.9.4 1.1h-3.3c-.1-.1-.2-.4-.2-.5-.1-.2-.1-.4-.1-.6-.5.5-1.1.9-1.8 1.1-.7.2-1.4.3-2.1.3-.5 0-1.1-.1-1.6-.2s-.9-.3-1.3-.7-.8-.6-1-1c-.2-.4-.3-1-.3-1.6 0-.7.1-1.3.3-1.7.3-.4.5-.7.9-1.1.4-.3.8-.5 1.3-.6.5-.1 1-.3 1.5-.3l1.5-.2s.9-.1 1.3-.2.7-.2.9-.4c.2-.2.3-.4.3-.7 0-.3-.1-.7-.2-.9-.4-.1-.5-.3-.7-.3-.2-.1-.4-.2-.7-.2-.3-.1-.5-.1-.8-.1-.7 0-1.2.1-1.5.4-.4.3-.6.7-.7 1.3h-3.1c.1-.8.3-1.4.6-2zm6.4 4.6c-.2.1-.4.1-.7.2-.3.1-.5.1-.7.1-.3.1-.5.1-.7.1-.3.1-.5.1-.7.2l-.6.3c-.2.1-.3.3-.4.5-.1.2-.2.5-.2.7s.1.5.2.7l.4.5c.2.1.4.2.7.3.3.1.5.1.7.1.7 0 1.1-.1 1.5-.3.3-.2.6-.5.7-.7.2-.3.3-.6.3-.9.1-.3.1-.5.1-.7v-1.2c-.3 0-.5.1-.6.1zM67.8 67.7v1.7h.1c.4-.7.9-1.2 1.6-1.5.7-.3 1.3-.5 2-.5.9 0 1.6.1 2.1.3.5.2 1 .5 1.3 1 .3.5.5.9.7 1.5.1.6.2 1.3.2 2v7.2h-3.2v-6.5c0-1-.2-1.7-.5-2.2-.3-.5-.9-.7-1.7-.7-.9 0-1.5.3-1.9.9s-.6 1.4-.6 2.6v6.2h-3.2v-11.9l3.1-.1zM82.2 69.8c-.5 0-.9.1-1.3.3-.3.3-.7.5-.9.9-.2.4-.4.7-.5 1.3-.1.5-.1.9-.1 1.3l.1 1.3c.1.4.3.9.4 1.2.2.3.5.7.9.9.3.2.7.3 1.3.3.7 0 1.3-.2 1.8-.7.4-.4.7-1.1.7-1.7h3.1c-.2 1.6-.8 2.7-1.8 3.6-1.1.8-2.2 1.3-3.8 1.3-.9 0-1.7-.2-2.4-.5s-1.3-.8-1.8-1.3-.9-1.2-1.3-1.9c-.3-.7-.4-1.5-.4-2.4s.1-1.7.4-2.6c.3-.7.7-1.5 1.2-2s1.2-1.1 1.9-1.3c.7-.3 1.7-.5 2.6-.5.7 0 1.3.1 2 .3.7.2 1.3.5 1.7.9.5.4.9.9 1.3 1.4.3.5.5 1.3.5 2h-3.2c-.2-1.4-1-2.1-2.4-2.1zM31.5 64.3h6.5v1.7h-6.5zM92.4 76.6c.5.5 1.3.7 2.1.7.7 0 1.3-.2 1.7-.5.5-.3.7-.7.9-1.1h2.8c-.5 1.4-1.2 2.4-2.1 3-.9.6-2.1.9-3.4.9-.9 0-1.8-.2-2.5-.5-.7-.1-1.3-.5-1.9-1.1-.5-.5-.9-1.2-1.2-2-.3-.7-.4-1.7-.4-2.5s.1-1.7.4-2.4c.3-.7.7-1.4 1.3-2 .5-.5 1.2-1 1.9-1.3.7-.3 1.6-.5 2.4-.5 1 0 1.9.2 2.6.6.7.4 1.3.9 1.8 1.6.5.7.8 1.4 1.1 2.2.2.9.3 1.7.2 2.6h-8.5c0 1 .3 1.9.8 2.3zm3.8-6.1c-.4-.4-1.1-.7-1.8-.7-.5 0-.9.1-1.3.3-.3.2-.7.4-.9.7-.2.3-.3.5-.4.9-.1.3-.1.5-.1.7h5.3c-.2-.8-.4-1.5-.8-1.9z"/></svg>