<?xml version="1.0" encoding="utf-8"?>
<!-- Generator: Adobe Illustrator 18.0.0, SVG Export Plug-In . SVG Version: 6.00 Build 0)  -->
<!DOCTYPE svg PUBLIC "-//W3C//DTD SVG 1.1//EN" "http://www.w3.org/Graphics/SVG/1.1/DTD/svg11.dtd">
<svg version="1.1" id="Layer_1" xmlns="http://www.w3.org/2000/svg" xmlns:xlink="http://www.w3.org/1999/xlink" x="0px" y="0px"
	 viewBox="725.6 308.5 1205.6 1167.3" enable-background="new 725.6 308.5 1205.6 1167.3" xml:space="preserve">
<path fill="#3B3A3C" d="M990.8,800.5c-129.6,0-241.7-112-241.7-241.6s103.3-250.4,241.7-250.4s241.6,112,241.6,250.4
	S1120.4,800.6,990.8,800.5L990.8,800.5z M990.8,359.8c-112,0-198.5,86.4-198.5,198.5s86.4,198.5,198.5,198.5s199.1-85.7,199.1-197.8
	S1094.8,359.8,990.8,359.8L990.8,359.8z M1094.8,584.5c-34.4,8.8-112,25.7-120.8,25.7s-25.7-8.8-25.7-25.7
	c0-8.8,17.5-95.2,17.5-129.6l34.4,112L1094.8,584.5L1094.8,584.5z"/>
<rect x="725.6" y="830.7" fill="none" width="1205.6" height="645.1"/>
<text transform="matrix(1 0 0 1 725.6429 1064.28)"><tspan x="0" y="0" fill="#3B3A3C" font-family="'Gotham-Bold'" font-size="320" letter-spacing="-19">5:</tspan><tspan x="257.9" y="0" fill="#3B3A3C" font-family="'Gotham-Bold'" font-size="320" letter-spacing="-12">3</tspan><tspan x="443.8" y="0" fill="#3B3A3C" font-family="'Gotham-Bold'" font-size="320">0</tspan><tspan x="677.4" y="0" fill="#3B3A3C" font-family="'Gotham-Bold'" font-size="320" letter-spacing="-57"> </tspan><tspan x="715.8" y="0" fill="#3B3A3C" font-family="'Gotham-Bold'" font-size="320" letter-spacing="-19">P</tspan><tspan x="910.4" y="0" fill="#3B3A3C" font-family="'Gotham-Bold'" font-size="320">M</tspan><tspan x="0" y="302" fill="#3B3A3C" font-family="'Gotham-Bold'" font-size="320" letter-spacing="-19">N</tspan><tspan x="233.6" y="302" fill="#3B3A3C" font-family="'Gotham-Bold'" font-size="320" letter-spacing="-27">O</tspan><tspan x="478.4" y="302" fill="#3B3A3C" font-family="'Gotham-Bold'" font-size="320">V</tspan><tspan x="718.4" y="302" fill="#3B3A3C" font-family="'Gotham-Bold'" font-size="320" letter-spacing="12"> </tspan><tspan x="827.2" y="302" fill="#3B3A3C" font-family="'Gotham-Bold'" font-size="320" letter-spacing="-12">1</tspan><tspan x="949.4" y="302" fill="#3B3A3C" font-family="'Gotham-Bold'" font-size="320">0</tspan></text>
</svg>
