<?xml version="1.0" encoding="utf-8"?>
<!-- Generator: Adobe Illustrator 19.1.0, SVG Export Plug-In . SVG Version: 6.00 Build 0)  -->
<!DOCTYPE svg PUBLIC "-//W3C//DTD SVG 1.1//EN" "http://www.w3.org/Graphics/SVG/1.1/DTD/svg11.dtd">
<svg version="1.1" id="Layer_1" xmlns="http://www.w3.org/2000/svg" xmlns:xlink="http://www.w3.org/1999/xlink" x="0px" y="0px"
	 viewBox="1139.6 367.9 1205.6 1167.3" style="enable-background:new 1139.6 367.9 1205.6 1167.3;" xml:space="preserve">
<style type="text/css">
	.st0{fill:#3B3A3C;}
	.st1{fill:none;}
	.st2{enable-background:new    ;}
</style>
<path class="st0" d="M1404.8,859.9c-129.6,0-241.7-112-241.7-241.6s103.3-250.4,241.7-250.4s241.6,112,241.6,250.4
	S1534.4,860,1404.8,859.9L1404.8,859.9z M1404.8,419.2c-112,0-198.5,86.4-198.5,198.5s86.4,198.5,198.5,198.5
	s199.1-85.7,199.1-197.8S1508.8,419.2,1404.8,419.2L1404.8,419.2z M1508.8,643.9c-34.4,8.8-112,25.7-120.8,25.7s-25.7-8.8-25.7-25.7
	c0-8.8,17.5-95.2,17.5-129.6l34.4,112L1508.8,643.9L1508.8,643.9z"/>
<rect x="1139.6" y="890.1" class="st1" width="1205.6" height="645.1"/>
<g class="st2">
	<path class="st0" d="M1174.8,899.7h137.6v43.2H1217l-2.6,38.7c9-2.2,17-3.8,29.4-3.8c44.2,0,78.4,21.1,78.4,72
		c0,47.7-33.6,77.8-85.1,77.8c-35.8,0-62.1-12.8-83.8-33.6l29.8-35.5c17,15.4,33.6,24.3,53.4,24.3c23,0,37.4-11.2,37.4-31.4
		c0-19.5-15.7-30.7-39.7-30.7c-14.1,0-26.9,3.8-37.4,8.3l-28.5-18.9L1174.8,899.7z"/>
	<path class="st0" d="M1343.8,1003.4v-51.2h51.8v51.2H1343.8z M1343.8,1123.7v-51.2h51.8v51.2H1343.8z"/>
</g>
<g class="st2">
	<path class="st0" d="M1422.8,941.9v-42.2h151.4v37.1l-56.6,54.1c30.7,5.1,60.2,21.1,60.2,63c0,42.6-30.7,73.6-80.6,73.6
		c-40.3,0-68.2-16-87.4-38.7l33.9-32.3c15.4,17.3,31.4,26.9,54.1,26.9c18.6,0,31.7-10.6,31.7-27.5c0-18.6-15.7-28.8-43.8-28.8h-20.5
		l-7.7-31.4l53.4-53.8L1422.8,941.9L1422.8,941.9z"/>
</g>
<g class="st2">
	<path class="st0" d="M1699.9,1127.5c-59.8,0-99.2-50.2-99.2-115.5s40-116.2,99.8-116.2s99.2,50.2,99.2,115.5
		C1799.8,1076.6,1759.8,1127.5,1699.9,1127.5z M1699.9,940.3c-29.8,0-48.6,29.8-48.6,71c0,41.3,19.5,71.7,49.3,71.7
		s48.6-30.1,48.6-71C1749.2,971.1,1729.7,940.3,1699.9,940.3z"/>
</g>
<g class="st2">
	<path class="st0" d="M1969,1056.5h-37.4v67.2h-49.3v-224h91.5c53.4,0,85.8,31.7,85.8,77.4v0.6
		C2059.6,1029.6,2019.3,1056.5,1969,1056.5z M2009.7,978.1c0-22.1-15.4-33.9-40-33.9h-38.1v68.5h39c24.6,0,39-14.7,39-33.9
		L2009.7,978.1L2009.7,978.1z"/>
</g>
<g class="st2">
	<path class="st0" d="M2252,1123.7V977.4l-63,95.7h-1.3l-62.4-94.7v145.3H2077v-224h53.1l58.9,94.7l58.9-94.7h53.1v224H2252z"/>
</g>
<g class="st2">
	<path class="st0" d="M1323.6,1425.7l-108.5-142.4v142.4h-48.6v-224h45.4l105,137.9v-137.9h48.6v224H1323.6z"/>
</g>
<g class="st2">
	<path class="st0" d="M1508.9,1429.5c-69.1,0-118.7-51.5-118.7-115.2v-0.6c0-63.7,50.2-115.8,119.4-115.8
		c69.1,0,118.7,51.5,118.7,115.2v0.6C1628.3,1377.4,1578,1429.5,1508.9,1429.5z M1576.8,1313.7c0-38.4-28.2-70.4-67.8-70.4
		c-39.7,0-67.2,31.4-67.2,69.8v0.6c0,38.4,28.2,70.4,67.8,70.4c39.7,0,67.2-31.4,67.2-69.8V1313.7z"/>
</g>
<g class="st2">
	<path class="st0" d="M1759.8,1427.3h-43.5l-90.6-225.6h54.4l58.6,157.8l58.6-157.8h53.1L1759.8,1427.3z"/>
</g>
<g class="st2">
	<path class="st0" d="M2038.8,1200.1h33.6v225.6h-48.6V1250l-39,9.6l-10.2-40.3L2038.8,1200.1z"/>
</g>
<g class="st2">
	<path class="st0" d="M2189.8,1428.9c-49.6,0-86.4-25.6-86.4-65c0-27.5,12.5-43.5,36.2-54.4c-17.3-10.6-28.5-25-28.5-49.3
		c0-34.6,31.4-61.8,78.7-61.8c47.3,0,78.7,27.2,78.7,61.8c0,24.3-11.2,38.7-28.5,49.3c22.7,11.8,36.2,26.2,36.2,53.1
		C2276.2,1404.6,2239.4,1428.9,2189.8,1428.9z M2189.8,1332.2c-22.4,0-38.7,10.2-38.7,27.8c0,16,14.4,28.2,38.7,28.2
		s38.7-12.2,38.7-28.2C2228.6,1342.5,2212.2,1332.2,2189.8,1332.2z M2189.8,1239.1c-20.2,0-32,12.2-32,26.2c0,16,12.5,27.8,32,27.8
		s32-11.5,32-27.5C2221.8,1251.6,2210,1239.1,2189.8,1239.1z"/>
</g>
</svg>
