<svg xmlns="http://www.w3.org/2000/svg" viewBox="0 0 256 256" enable-background="new 0 0 256 256"><style type="text/css">.st0{fill:#3B3A3C;}</style><path class="st0" d="M49.5 135.7l-1.3 8.1c.9-.9 2.1-1.7 3-2.1 1.3-.4 2.6-.4 3.8-.4 1.7 0 3.4.4 4.7.9 1.3.9 2.6 1.7 3.4 2.6.9 1.3 1.7 2.6 2.1 3.8.4 1.3.9 3 .9 4.7s-.4 3.4-1.3 5.1c-.9 1.7-1.7 3-3 4.3-1.3 1.3-2.6 2.1-4.3 2.6s-3.4.9-5.1.9-3.4-.4-5.1-.9-3-1.3-4.3-2.1c-1.3-.9-2.1-2.1-3-3.4s-1.3-3-1.3-5.1h8.1c0 1.7.9 3 1.7 3.8s2.6 1.3 3.8 1.3c.9 0 1.7 0 2.6-.4.9-.4 1.3-.9 2.1-1.7s.9-1.3 1.3-2.1c.4-.9.4-1.7.4-2.6 0-.9 0-1.7-.4-2.6-.4-.9-.9-1.7-1.3-2.1-.4-.4-1.3-1.3-2.1-1.3-.9-.4-1.7-.4-2.6-.4-1.3 0-2.6.4-3 .9-.9.4-1.7 1.3-2.1 2.1h-6.2l3.4-19.6h20.1v6l-15-.3zM70.4 147.6v-7.7h8.1v7.7h-8.1zm8.1 10.3v7.7h-8.1v-7.7h8.1zM95.6 144.2l2.6-.4c.9-.4 1.3-.9 1.7-1.3.4-.4.9-1.3.9-2.6 0-1.7-.4-2.6-1.7-3.4-.9-.9-2.1-1.3-3.4-1.3-1.7 0-3.4.4-4.3 1.7-.9 1.3-1.3 2.6-1.3 4.7h-6.8c0-1.7.4-3.4.9-5.1.4-1.7 1.3-3 2.6-3.8 1.3-1.3 2.6-2.1 3.8-2.6 1.3-.4 3-.9 5.1-.9 1.3 0 3 0 4.3.4 1.3.4 2.6.9 3.8 2.1 1.3.9 2.1 1.7 3 3 .9 1.3 1.3 2.6 1.3 4.3 0 1.7-.4 3.4-1.3 4.7s-2.1 2.1-3.8 2.6c2.1.4 3.4 1.3 4.7 3 1.3 1.3 1.7 3.4 1.7 5.1 0 1.7-.4 3.4-1.3 5.1-.9 1.3-1.7 2.6-3 3.8-1.3.9-2.6 1.7-4.3 2.1-1.7.4-3.4.9-5.1.9-2.1 0-3.8-.4-5.5-.9-1.7-.4-3-1.3-4.3-2.6-1.3-1.3-2.1-2.6-2.6-4.3-.4-1.7-.9-3.4-.9-5.5h7.3c0 .9 0 1.7.4 2.6.4.9.9 1.7 1.3 2.1l1.7 1.7c.9.4 1.7.4 2.6.4 1.7 0 3-.4 4.3-1.7 1.3-.9 1.7-2.6 1.7-4.3 0-1.3-.4-2.6-.9-3-.4-.4-1.3-1.3-2.1-1.7-.9-.4-1.7-.4-2.6-.4h-3v-5.1c.8.6 1.6.6 2.5.6zM114.3 138.7c.9-2.6 1.7-4.3 3-5.5s2.6-2.6 4.3-3c1.7-.4 3.4-.9 5.1-.9s3.4.4 5.1.9c1.7.4 3 1.7 4.3 3 1.3 1.3 2.1 3.4 3 5.5.9 2.6.9 5.1.9 9 0 3.4-.4 6.4-.9 9-.4 2.6-1.7 4.3-3 6-1.3 1.3-2.6 2.6-4.3 3-2.1.4-3.8.9-5.5.9-1.7 0-3.4-.4-5.1-.9-1.7-.4-3-1.7-4.3-3s-2.1-3.4-3-6c-.9-2.6-.9-5.5-.9-9 .1-3.5.5-6.5 1.3-9zm6 12.8l.4 4.3s.9 2.6 1.7 3.4c.9.9 1.7 1.3 3.4 1.3s2.6-.4 3.4-1.3c.9-.9 1.3-2.1 1.7-3.4s.4-2.6.9-4.3v-8.5s-.4-1.7-.4-2.6c0-.9-.4-1.7-.9-2.6-.4-.9-.9-1.3-1.7-1.7s-1.7-.9-2.6-.9c-.9 0-1.7.4-2.6.9-.9.4-1.3.9-1.7 1.7-.4.9-.9 1.7-.9 2.6-.4.9-.4 1.7-.4 2.6v4.7c-.3.8-.3 2.1-.3 3.8zM164.7 129.3c2.1 0 4.3.4 6 .9 1.7.9 3 1.7 3.8 2.6.9 1.3 1.7 2.1 2.1 3.8.4 1.3.9 3 .9 4.3s-.4 3-.9 4.3c-.4 1.3-1.3 2.6-2.1 3.8-.9 1.3-2.1 2.1-3.8 2.6-1.7.9-3.4.9-6 .9h-8.5v13.2h-8.1v-36.7h16.6v.3zm-2.1 17h2.6c.9 0 1.7-.4 2.1-.9.9-.4 1.3-.9 1.7-1.7.4-.9.4-1.7.4-3s0-2.1-.4-3c-.4-.9-.9-1.3-1.7-1.7s-1.3-.9-2.1-.9h-9v11.1l6.4.1zM193.7 129.3l8.5 25.2 8.1-25.2h11.5v36.7h-7.7v-26l-9 26h-6.4l-9-25.6v25.6h-7.7v-36.7h11.7zM54.2 172.4l9 26.5 8.5-26.5h11.9v38h-7.7v-26.9l-9.4 26.9h-6.8l-9.4-26.9v26.9h-8.1v-38h12zM110.1 172.4l14.1 38h-8.5l-3-8.5h-14.6l-3 8.5h-8.5l14.5-38h9zm.4 23l-4.7-14.1-5.1 14.1h9.8zM119.5 172.4h9.4l9 14.9 9-14.9h9.4l-14.1 23.5v14.5h-8.5v-14.9l-14.2-23.1zM180.5 210.3v-24.3h-9.4v-5.5c1.3 0 2.6 0 3.8-.4l3.4-1.3c.9-.4 1.7-1.3 2.6-2.1.9-.9 1.3-2.1 1.3-3.4h6v37.5h-7.7v-.5zM193.3 201.8v-6.8l16.2-21.8h6.8v22.6h5.1v6.4h-5.1v8.5h-7.3v-8.5h-15.8v-.4zm15.8-19.2l-9.8 12.8h9.8v-12.8zM75.5 118.6c-19.2 0-35.8-16.6-35.8-35.8s15.3-37.1 35.8-37.1 35.8 16.6 35.8 37.1-16.6 35.8-35.8 35.8zm0-65.3c-16.6 0-29.4 12.8-29.4 29.4s12.8 29.4 29.4 29.4 29.5-12.7 29.5-29.3-14.1-29.5-29.5-29.5zM90.9 86.6c-5.1 1.3-16.6 3.8-17.9 3.8-1.3 0-3.8-1.3-3.8-3.8 0-1.3 2.6-14.1 2.6-19.2l5.1 16.6 14 2.6z"/></svg>