<svg xmlns="http://www.w3.org/2000/svg" viewBox="725.6 308.5 1205.6 1167.3" enable-background="new 725.6 308.5 1205.6 1167.3"><path fill="#3B3A3C" d="M990.8 800.5c-129.6 0-241.7-112-241.7-241.6s103.3-250.4 241.7-250.4 241.6 112 241.6 250.4-112 241.7-241.6 241.6zm0-440.7c-112 0-198.5 86.4-198.5 198.5s86.4 198.5 198.5 198.5 199.1-85.7 199.1-197.8-95.1-199.2-199.1-199.2zm104 224.7c-34.4 8.8-112 25.7-120.8 25.7s-25.7-8.8-25.7-25.7c0-8.8 17.5-95.2 17.5-129.6l34.4 112 94.6 17.6z"/><path fill="none" d="M725.6 830.7h1205.6v645.1h-1205.6z"/><text transform="translate(725.643 1064.28)"><tspan x="0" y="0" fill="#3B3A3C" font-family="'Gotham-Bold'" font-size="320" letter-spacing="-19">5:</tspan><tspan x="257.9" y="0" fill="#3B3A3C" font-family="'Gotham-Bold'" font-size="320" letter-spacing="-12">3</tspan><tspan x="443.8" y="0" fill="#3B3A3C" font-family="'Gotham-Bold'" font-size="320">0</tspan><tspan x="715.8" y="0" fill="#3B3A3C" font-family="'Gotham-Bold'" font-size="320" letter-spacing="-19">P</tspan><tspan x="910.4" y="0" fill="#3B3A3C" font-family="'Gotham-Bold'" font-size="320">M</tspan><tspan x="0" y="302" fill="#3B3A3C" font-family="'Gotham-Bold'" font-size="320" letter-spacing="-19">N</tspan><tspan x="233.6" y="302" fill="#3B3A3C" font-family="'Gotham-Bold'" font-size="320" letter-spacing="-27">O</tspan><tspan x="478.4" y="302" fill="#3B3A3C" font-family="'Gotham-Bold'" font-size="320">V</tspan><tspan x="827.2" y="302" fill="#3B3A3C" font-family="'Gotham-Bold'" font-size="320" letter-spacing="-12">1</tspan><tspan x="949.4" y="302" fill="#3B3A3C" font-family="'Gotham-Bold'" font-size="320">0</tspan></text></svg>