<svg xmlns="http://www.w3.org/2000/svg" viewBox="0 0 256 256" enable-background="new 0 0 256 256"><style type="text/css">.st0{fill:#FFFFFF;}</style><path class="st0" d="M170.2 98.8h59.2v90.8c0 22.2-17.9 40.1-40.1 40.1h-122.3c-22.2 0-40.1-17.9-40.1-40.1v-90.8h58.9c-6.1 8.5-9.7 18.8-9.7 30.1 0 28.5 23.1 51.9 51.9 51.9 28.5 0 51.9-23.1 51.9-51.9-.3-11.2-3.9-21.6-9.7-30.1zm58.9-32.4v26.4h-64.4c-9.4-9.4-22.5-15.5-37-15.5s-27.6 5.8-37 15.5h-64.1v-26.4c0-13.4 6.7-25.5 17-32.8v43.1h8.2v-47.7c1.8-.6 3.6-1.2 5.8-1.8v49.5h8.2v-50.4h5.800000000000001v50.4h8.2v-50.4h109.2c22.2 0 40.1 17.9 40.1 40.1zm-18.2-17.1c0-3.6-2.7-6.4-6.4-6.4h-21.5c-3.6 0-6.4 2.7-6.4 6.4v22.2c0 3.6 2.7 6.4 6.4 6.4h21.6c3.6 0 6.4-2.7 6.4-6.4v-22.2h-.1zm-123 79.6c0-11.8 5.2-22.8 13.7-30.1 3-2.4 6.4-4.9 9.7-6.4 5.2-2.4 10.6-3.6 16.4-3.6s11.5 1.2 16.4 3.6c3.6 1.5 7 3.6 9.7 6.4 8.2 7.3 13.7 17.9 13.7 30.1 0 21.9-17.9 39.8-39.8 39.8s-39.8-17.9-39.8-39.8zm10.6 0c0 16.4 13.1 29.5 29.5 29.5s29.5-13.1 29.5-29.5-13.1-29.5-29.5-29.5c-16.4.1-29.5 13.1-29.5 29.5z"/></svg>