<svg xmlns="http://www.w3.org/2000/svg" viewBox="0 0 256 256" enable-background="new 0 0 256 256"><style type="text/css">.st0{fill:#00B8DB;} .st1{fill:#FFFFFF;}</style><path class="st0" d="M128 237.6c-60.5 0-109.6-49-109.6-109.6 0-60.4 49-109.4 109.6-109.4 60.4 0 109.4 49 109.4 109.4s-49 109.6-109.4 109.6m0-237.6c-70.7 0-128 57.3-128 128s57.3 128 128 128 128-57.3 128-128-57.3-128-128-128"/><path class="st1" d="M83.1 131.3v-34.9h-13.6v-8.2c1.9 0 3.7-.1 5.5-.4 1.8-.4 3.3-.9 4.7-1.8 1.4-.9 2.6-1.9 3.6-3.3s1.7-3.1 1.9-5.1h8.8v53.9h-10.9v-.2zm27.5-41.7c.8-2.7 2-5 3.7-6.9s3.7-3.5 6.1-4.6c2.4-1.2 5.4-1.7 8.6-1.7 2.4 0 4.9.4 7 1.2 2.2.8 4.2 1.9 5.9 3.3 1.7 1.4 3.1 3.2 4.1 5.2 1 2 1.5 4.5 1.5 7 0 2.7-.4 5-1.3 7-.9 1.9-2 3.7-3.5 5.2-1.4 1.5-3.1 2.9-4.9 4.1l-5.5 3.7c-1.8 1.3-3.6 2.6-5.4 3.8-1.8 1.4-3.3 2.9-4.6 4.9h25.7v9.3h-39.7c0-3.1.4-5.9 1.4-8.2.9-2.3 2.2-4.4 3.7-6.1 1.5-1.8 3.3-3.5 5.4-5 2-1.5 4.2-3.1 6.5-4.7 1.2-.8 2.4-1.7 3.7-2.6s2.6-1.8 3.7-2.8c1.2-1 2-2.2 2.8-3.5.8-1.3 1.2-2.7 1.2-4.4 0-2.6-.8-4.6-2.3-6.1-1.5-1.4-3.5-2.2-5.8-2.2-1.5 0-2.9.4-4.1 1.2-1.2.8-2 1.7-2.7 2.9-.6 1.2-1.2 2.6-1.4 4s-.4 2.9-.4 4.4h-10.5c-.2-2.9.2-5.8 1.1-8.4zm42 1.3c1-3.6 2.4-6.4 4.2-8.6 1.8-2.2 3.8-3.7 6.3-4.6 2.4-.9 4.9-1.4 7.6-1.4 2.7 0 5.2.5 7.7 1.4s4.5 2.4 6.3 4.6 3.2 5 4.4 8.6c1 3.6 1.5 7.9 1.5 13.2 0 5.4-.5 9.9-1.5 13.4-1 3.6-2.4 6.5-4.4 8.7-1.8 2.2-4 3.7-6.3 4.6s-5 1.4-7.7 1.4-5.2-.5-7.6-1.4c-2.3-.9-4.5-2.4-6.3-4.6-1.8-2.2-3.2-5-4.2-8.7-1-3.6-1.5-8.1-1.5-13.4-.1-5.2.5-9.6 1.5-13.2zm9.4 18.8c.1 2.2.4 4.2 1 6.3.5 2 1.4 3.7 2.6 5.2 1.2 1.4 2.8 2.2 5.1 2.2s4-.8 5.2-2.2c1.2-1.4 2-3.2 2.6-5.2s.9-4.1 1-6.3c.1-2.2.1-4.1.1-5.6v-3.3s-.1-2.7-.3-4.1c-.1-1.4-.4-2.8-.8-4.1-.4-1.4-.9-2.6-1.5-3.7-.6-1-1.5-1.9-2.6-2.6s-2.3-1-3.7-1c-1.5 0-2.7.4-3.7 1s-1.8 1.5-2.4 2.6-1.2 2.3-1.5 3.7c-.4 1.4-.6 2.7-.8 4.1s-.3 2.7-.3 4.1v3.3c-.1 1.6-.1 3.4 0 5.6zm-67.4 41.9v4.7h.1c.9-1.7 2-3.1 3.5-4 1.4-1 3.3-1.4 5.5-1.4 1.8 0 3.5.5 5 1.4 1.5.9 2.4 2.3 2.9 4.1.8-1.8 2-3.2 3.7-4.1 1.7-.9 3.3-1.4 5.1-1.4 6.1 0 9.2 3.2 9.2 9.7v18.6h-3.3v-18.7c0-2.3-.5-4.1-1.4-5.2-1-1.2-2.7-1.8-5.1-1.8-1.4 0-2.7.3-3.7.9-1 .5-1.8 1.3-2.3 2.2s-1 2-1.2 3.2c-.3 1.2-.4 2.4-.4 3.7v15.7h-3.3v-18.8c0-.9-.1-1.8-.3-2.7-.3-.9-.5-1.5-1-2.2-.4-.6-1-1.2-1.8-1.5s-1.7-.5-2.7-.5c-1.4 0-2.7.3-3.7.8s-1.9 1.3-2.6 2.2-1.2 2-1.5 3.2c-.4 1.3-.5 2.6-.5 4.1v15.5h-3.3v-27.8h3.1v.1zm45-10.7v5.4h-3.3v-5.4h3.3zm0 10.7v27.6h-3.3v-27.8h3.3v.2zm12.1 0v4.7h.1c.6-1.7 1.8-3.1 3.5-4.1 1.7-1 3.5-1.5 5.4-1.5s3.6.3 4.9.8c1.3.5 2.3 1.2 3.2 2.2.8.9 1.4 2 1.7 3.3.4 1.3.5 2.8.5 4.5v17.8h-3.3v-17.3c0-1.2-.1-2.3-.4-3.3s-.6-1.9-1.2-2.7c-.5-.8-1.3-1.3-2.2-1.8-.9-.4-2-.6-3.5-.6-1.4 0-2.6.3-3.6.8s-1.9 1.2-2.7 2c-.8.9-1.3 1.8-1.7 2.9-.4 1.2-.6 2.4-.6 3.8v16.1h-3.3v-27.8h3.2v.2z"/></svg>