<svg xmlns="http://www.w3.org/2000/svg" viewBox="0 0 256 256" enable-background="new 0 0 256 256"><style type="text/css">.st0{fill:#FFFFFF;} .st1{fill:#00B8DB;}</style><path class="st0" d="M108.9 99.2c1.3-.1 2.6-.4 3.7-.9 1.2-.5 2-1.2 2.8-2.2.8-.9 1.2-2.2 1.2-3.7 0-2.3-.8-4.1-2.3-5.2-1.5-1.3-3.3-1.8-5.2-1.8-2.8 0-4.9.9-6.3 2.7s-2 4.1-2 6.9h-10.4c.1-2.8.6-5.2 1.5-7.6.9-2.3 2.2-4.2 3.7-5.9 1.7-1.7 3.6-2.9 5.8-3.8 2.3-.9 4.7-1.4 7.6-1.4 2.2 0 4.4.4 6.4 1 2.2.6 4.1 1.7 5.8 2.9 1.7 1.3 3.1 2.8 4.2 4.7 1 1.8 1.7 4 1.7 6.4 0 2.6-.6 4.9-1.9 6.9-1.3 2-3.2 3.3-5.6 4.1 2.9.6 5.2 2 7 4.4 1.7 2.2 2.6 4.9 2.6 7.9 0 2.8-.5 5.4-1.7 7.6-1.2 2.2-2.6 4.1-4.5 5.5-1.8 1.5-4 2.6-6.4 3.3-2.4.8-4.9 1.2-7.6 1.2-3.1 0-5.8-.4-8.3-1.3-2.4-.9-4.6-2.2-6.4-3.8-1.8-1.7-3.1-3.7-4.1-6.1-.9-2.4-1.4-5.1-1.3-8.3h10.4c0 1.4.3 2.8.6 4.1s1 2.4 1.8 3.3 1.8 1.7 2.9 2.3c1.2.5 2.6.9 4.1.9 2.4 0 4.5-.8 6.3-2.3 1.7-1.5 2.6-3.6 2.6-6.1 0-2-.4-3.6-1.2-4.7-.8-1-1.8-1.9-3.1-2.3-1.3-.5-2.6-.8-4.1-.9-1.4-.1-2.8-.1-4.2-.1v-7.7c1.2.1 2.5.1 3.9 0zM133.5 90.9c1-3.6 2.4-6.4 4.2-8.6 1.8-2.2 3.8-3.7 6.3-4.6 2.4-.9 4.9-1.4 7.6-1.4 2.7 0 5.2.5 7.7 1.4s4.5 2.4 6.3 4.6 3.2 5 4.4 8.6c1 3.6 1.5 7.9 1.5 13.2 0 5.4-.5 9.9-1.5 13.4-1 3.6-2.4 6.5-4.4 8.7-1.8 2.2-4 3.7-6.3 4.6-2.4.9-5 1.4-7.7 1.4s-5.2-.5-7.6-1.4c-2.4-.9-4.5-2.4-6.3-4.6-1.8-2.2-3.2-5-4.2-8.7-1-3.6-1.5-8.1-1.5-13.4 0-5.2.5-9.6 1.5-13.2zm9.6 18.8c.1 2.2.4 4.2 1 6.3.5 2 1.4 3.7 2.6 5.2 1.2 1.4 2.8 2.2 5.1 2.2s4-.8 5.2-2.2c1.2-1.4 2-3.2 2.6-5.2.5-2 .9-4.1.9-6.3.1-2.2.1-4.1.1-5.6v-3.3s-.1-2.7-.3-4.1c-.1-1.4-.4-2.8-.8-4.1-.4-1.4-.9-2.6-1.5-3.7-.6-1-1.5-1.9-2.6-2.6s-2.3-1-3.7-1c-1.5 0-2.7.4-3.7 1s-1.8 1.5-2.4 2.6-1.2 2.3-1.5 3.7c-.4 1.4-.6 2.7-.8 4.1-.1 1.4-.3 2.7-.3 4.1v3.3c-.2 1.6 0 3.4.1 5.6zM92 151.6v4.7h.1c.9-1.7 2-3.1 3.5-4 1.4-1 3.3-1.4 5.5-1.4 1.8 0 3.5.4 5 1.3s2.4 2.3 2.9 4.1c.8-1.8 2-3.2 3.7-4.1s3.3-1.3 5.1-1.3c6.1 0 9.2 3.2 9.2 9.7v18.6h-3.3v-18.7c0-2.3-.5-4.1-1.4-5.2-1-1.2-2.7-1.8-5.1-1.8-1.4 0-2.7.3-3.7.9-1 .5-1.8 1.3-2.3 2.2s-1 2-1.2 3.2c-.3 1.2-.4 2.4-.4 3.7v15.7h-3.3v-18.8c0-.9-.1-1.8-.3-2.7-.3-.9-.5-1.5-1-2.2-.4-.6-1-1.2-1.8-1.5-.8-.4-1.7-.5-2.7-.5-1.4 0-2.7.3-3.7.8s-1.9 1.3-2.6 2.2-1.2 2-1.5 3.2c-.4 1.3-.5 2.6-.5 4.1v15.5h-3.2v-27.8h3v.1zM137.2 140.9v5.4h-3.3v-5.4h3.3zm0 10.7v27.6h-3.3v-27.8h3.3v.2zM149.1 151.6v4.7h.1c.6-1.7 1.8-3.1 3.5-4.1 1.7-1 3.5-1.5 5.4-1.5s3.6.3 4.9.8c1.3.5 2.3 1.2 3.2 2.2.8.9 1.3 2 1.7 3.3.3 1.3.5 2.8.5 4.5v17.8h-3.4v-17.3c0-1.2-.1-2.3-.4-3.3s-.6-1.9-1.2-2.7c-.5-.8-1.3-1.3-2.2-1.8-.9-.4-2-.6-3.5-.6-1.4 0-2.6.3-3.6.8s-1.9 1.2-2.7 2c-.8.9-1.3 1.8-1.7 2.9-.4 1.2-.6 2.4-.6 3.8v16.1h-3.3v-27.8h3.2v.2zM128 237.6c-60.4 0-109.4-49-109.4-109.4s49-109.5 109.4-109.5v-18.7c-70.7 0-128 57.3-128 128s57.3 128 128 128c40.2 0 75.9-18.6 99.5-47.5l-14-12.2c-20.1 25.1-50.9 41.3-85.5 41.3"/><path class="st1" d="M128 0v18.4c60.4 0 109.4 49 109.4 109.4 0 25.9-9 49.7-24.1 68.4l14 12.2c17.8-22 28.5-50 28.5-80.5.2-70.6-57.1-127.9-127.8-127.9"/></svg>