<svg xmlns="http://www.w3.org/2000/svg" viewBox="0 0 256 256" enable-background="new 0 0 256 256"><style type="text/css">.st0{fill:#9D9FA1;} .st1{fill:#FFFFFF;}</style><path class="st0" d="M128 237.4c-60.4 0-109.6-49-109.6-109.6 0-60.4 49-109.4 109.6-109.4 60.4 0 109.4 49 109.4 109.4 0 60.6-49 109.6-109.4 109.6m0-237.4c-70.7 0-128 57.3-128 128s57.3 128 128 128 128-57.3 128-128-57.3-128-128-128"/><path class="st1" d="M103.6 151.7c-3.6 0-6.7-.6-9.5-1.9-2.8-1.3-5.1-2.9-7.2-5-2-2.2-3.5-4.6-4.5-7.6-1-2.9-1.5-6.1-1.5-9.5 0-3.3.5-6.5 1.5-9.3 1-2.9 2.4-5.4 4.4-7.6 1.9-2 4.2-3.8 7-5 2.8-1.3 5.9-1.9 9.3-1.9 2.8 0 5.5.4 7.8 1.3 2.4.9 4.6 2 6.7 3.5 2 1.4 4 3.1 5.8 4.9 1.8 1.8 3.5 3.8 5.2 5.9 1.7-1.9 3.3-4 5.1-5.9 1.8-1.9 3.7-3.6 5.8-5 2-1.4 4.2-2.6 6.7-3.5 2.4-.9 5-1.3 7.7-1.3 3.5 0 6.5.6 9.3 1.8 2.8 1.2 5.1 2.8 7 5 1.9 2.2 3.3 4.6 4.4 7.4 1 2.8 1.5 6 1.5 9.3 0 3.3-.5 6.5-1.5 9.5-1 2.9-2.6 5.5-4.4 7.7-1.9 2.2-4.2 4-7 5.1-2.8 1.3-5.9 1.9-9.3 1.9-2.7 0-5.1-.4-7.6-1.3-2.3-.8-4.5-1.9-6.5-3.2-2-1.3-4-2.9-5.8-4.6-1.8-1.8-3.6-3.6-5.1-5.5-1.8 1.9-3.6 3.7-5.2 5.5-1.7 1.8-3.6 3.3-5.5 4.6-1.9 1.3-4.1 2.4-6.4 3.2-2.7 1.1-5.3 1.5-8.2 1.5zm-.2-13.1c1.7 0 3.3-.4 4.9-1 1.7-.6 3.2-1.4 4.6-2.4s2.8-2 4.1-3.3 2.4-2.4 3.5-3.7c-1-1.2-2.3-2.3-3.6-3.7-1.4-1.3-2.8-2.6-4.4-3.7-1.5-1.2-3.1-2-4.7-2.8-1.7-.8-3.3-1.2-4.9-1.2-3.1 0-5.4 1.2-7.2 3.5-1.8 2.3-2.7 4.9-2.7 7.7 0 3.1.9 5.6 2.7 7.7 2.1 1.9 4.5 2.9 7.7 2.9zm50.3 0c3.2 0 5.6-1 7.4-3.1 1.7-2 2.6-4.6 2.6-7.7 0-3.1-.9-5.6-2.8-7.8-1.8-2.2-4.4-3.2-7.6-3.2-1.8 0-3.5.4-5 1.2s-3.1 1.7-4.5 2.8c-1.4 1.2-2.8 2.3-4.1 3.7-1.3 1.3-2.4 2.6-3.5 3.7 1.2 1.3 2.3 2.6 3.6 3.8s2.7 2.4 4.1 3.3c1.4.9 2.9 1.8 4.6 2.4 1.6.5 3.4.9 5.2.9z"/></svg>